<svg xmlns="http://www.w3.org/2000/svg" version="1.1" xmlns:xlink="http://www.w3.org/1999/xlink" xmlns:svgjs="http://svgjs.dev/svgjs" width="2000" height="2250" viewBox="0 0 2000 2250"><g transform="matrix(1,0,0,1,3.410605131648481e-13,0)"><svg viewBox="0 0 320 360" data-background-color="#ffffff" preserveAspectRatio="xMidYMid meet" height="2250" width="2000" xmlns="http://www.w3.org/2000/svg" xmlns:xlink="http://www.w3.org/1999/xlink"><g id="tight-bounds" transform="matrix(1,0,0,1,0,0)"><svg viewBox="0 0 320 360" height="360" width="320"><g><svg></svg></g><g><svg viewBox="0 0 320 360" height="360" width="320"><g><path d="M20.961 227.22l3.726 4.658-1.863-6.056c-0.466-2.795-3.726 0.466-1.863 1.398M25.153 224.425c1.397 2.329 2.795 4.658 2.795 6.987 0 3.261 2.795 4.658 5.123 5.589-3.261-3.726-5.124-13.974-7.918-12.576M204.017 26.929c7.918 0 15.371-0.932 23.756 0.931 20.495 5.124 37.729 15.371 49.374 29.811l32.606 52.169c1.397 13.042 4.192 27.482 3.726 43.319 3.261 0 2.795-4.658 6.521-5.59-3.726 9.316-5.59 20.961-6.521 34.469-2.329-7.453 0-18.632 0.466-24.687-3.261 5.124-5.124 1.397-5.124-0.932 0.466-3.726-1.397-3.261-2.795-4.658-5.124-4.658-8.384-9.782-12.11-17.7 2.329-6.055 2.795-14.905-4.658-19.563-2.329-1.397-5.124-3.726-6.521-7.453-1.863-5.124-5.124-11.179-4.193-19.097 0.466-2.329-6.987 5.124-11.179 1.863-18.166-12.576-36.332-27.016-58.224-39.127-11.645 0-20.029-4.192-24.221-9.316-3.726-4.658-0.932-10.713 4.658-11.179 3.261 0 6.987-0.932 9.782 0.932 0.466-1.863 2.329-4.192 4.657-4.192M157.904 16.215l0.932 0.466c4.658 0.932 6.987 7.453 12.11 5.124 0 3.261 0.466 6.521-0.466 8.85-1.397 3.726-5.59 3.726-8.85 3.726-31.208-1.863-49.374 11.179-68.471 22.358-5.124 3.261-10.713 5.59-14.906 9.782-20.029 18.632-41.921 35.866-47.045 70.335l-4.192 38.195c-0.466 4.192-5.124 8.384-4.192 13.508l3.26 22.824c-3.261-3.261-5.124 0.932-4.192 2.795 0.466 1.397 2.329 6.055 5.124 1.863 3.726 6.987 7.453 20.495 12.576 26.55 15.837 18.632 36.332 35.4 53.101 52.169 4.192-0.932 7.453-0.932 8.384-3.727 1.397 2.795-1.397 5.59-3.726 6.056 7.453 4.658 15.837 8.85 27.016 9.781 14.44 0.932 27.948 3.261 40.524 6.522 6.521-1.863 13.042-2.795 20.029-3.261 2.329 0 3.726-3.726 6.521-4.658l0.466-4.658c2.795 4.192 2.329-1.397 0.466-4.192 3.261 2.795 4.192 5.124 5.589 6.987 0-1.397 3.726-6.521 3.727-0.466l0.931-6.055c1.397-0.932 1.863 5.124 3.261 0.931 1.397-4.192 4.192-0.932 6.987-2.329-0.932 1.863-0.466 5.59 2.794 3.261l3.727-3.261c2.329 5.59 6.055 3.261 7.918 2.329 20.495-13.042 40.99-28.413 60.553-43.784l-0.466 6.055 2.329-7.453c2.329 2.329 4.192 0.466 5.124-0.931 2.795-4.658 6.521-9.316 12.577-13.508-7.453 20.029-16.303 35.866-27.482 48.908l-4.658 5.59c0 3.261-0.932 7.453-4.658 7.918-1.863 0.466-5.59-0.932-8.384 1.863-1.397 1.863 3.261 5.59-0.466 2.795-3.261-2.329-6.521 0-10.248 0.932-2.795 0.932 1.863 3.726 2.795 5.589 0.932 1.863 1.863 3.726 1.398 6.056l-5.124-5.59c-6.055 3.261-9.782 9.316-14.906 13.974-2.329 1.863-1.397 5.124-1.397 7.918-3.261 0-6.987-0.932-8.85 0.932-1.397 1.863-0.932 4.658-0.932 7.453-4.658-0.466-5.124-7.453-9.315-6.056-4.192 0.932-8.85 1.397-12.577 3.727 2.795 5.59-4.658 2.329-3.726 3.26-6.987-4.192-13.042-7.453-20.495-4.658-15.837-5.124-35.4-2.795-49.84-0.931 0-2.329 0.466-4.658-0.466-5.124-0.932 2.329-3.726 1.397-3.26 1.397-8.85-6.055-17.7-9.782-27.016-14.905-8.384 0.932-16.303-3.261-18.632-5.59-6.521-6.055-13.974-2.795-20.029-4.192-13.042-3.261-17.7-16.769-19.098-26.084-0.932-4.658-4.658-6.521-6.055-6.056-6.055-19.563-15.371-37.263-22.824-55.429-1.863-4.658-1.397-9.316-1.397-14.44 2.329 0.932 4.658 0.466 4.192-2.794-2.329-15.371-7.918-27.016-13.974-38.195 3.261-15.837 3.726-34.469 11.179-48.443 6.521-12.576 18.632-19.098 27.016-29.811 2.795-3.726 2.795-8.85 5.59-12.11 9.316-9.316 18.632-19.098 28.879-27.482 4.658-3.726 10.247 0 17.234-1.397 2.329-8.384 11.645-15.837 20.495-13.508 3.726 0.932 11.179-8.85 13.508-9.782 3.726-1.397 1.863 3.726 1.863 6.987 8.85-6.987 20.961-10.713 32.14-14.906" fill="#000000" fill-rule="nonzero" stroke="none" stroke-width="1" stroke-linecap="butt" stroke-linejoin="miter" stroke-miterlimit="10" stroke-dasharray="" stroke-dashoffset="0" font-family="none" font-weight="none" font-size="none" text-anchor="none" style="mix-blend-mode: normal" data-fill-palette-color="tertiary"></path></g><g transform="matrix(1,0,0,1,70.28662420382166,90)"><svg viewBox="0 0 179.42675159235668 180" height="180" width="179.42675159235668"><g><svg viewBox="0 0 179.42675159235668 180" height="180" width="179.42675159235668"><g><svg viewBox="0 0 179.42675159235668 180" height="180" width="179.42675159235668"><g><svg viewBox="0 0 179.42675159235668 180" height="180" width="179.42675159235668"><g id="textblocktransform"><svg viewBox="0 0 179.42675159235668 180" height="180" width="179.42675159235668" id="textblock"><g><svg viewBox="0 0 179.42675159235668 180" height="180" width="179.42675159235668"><g transform="matrix(1,0,0,1,0,0)"><svg width="179.42675159235668" viewBox="1.9 -37.84 38.21 38.330000000000005" height="180" data-palette-color="#ff0000"><path d="M13.57-0.27L13.57-0.27Q12.35 0.49 10.82 0.49 9.28 0.49 8.18-0.29L8.18-0.29Q6.93 0.49 5.88 0.49 4.83 0.49 4.15 0.31 3.47 0.12 2.98-0.2L2.98-0.2Q1.9-0.83 1.9-1.78L1.9-1.78Q1.9-2.27 2.17-2.64L2.17-2.64Q2.71-2.22 3.54-2.22L3.54-2.22Q5.71-2.22 6.54-4.08L6.54-4.08 6.54-16.02Q6.54-17.92 4.64-18.9L4.64-18.9 3.56-19.46Q5.74-20.46 6.3-21.63L6.3-21.63Q6.54-22.17 6.54-22.95L6.54-22.95 6.54-33.25Q5.71-35.13 3.54-35.13L3.54-35.13Q2.71-35.13 2.17-34.72L2.17-34.72Q1.9-35.08 1.9-35.56 1.9-36.04 2.19-36.45 2.47-36.87 2.98-37.16L2.98-37.16Q4.08-37.84 5.51-37.84 6.93-37.84 8.18-37.06L8.18-37.06Q9.28-37.84 10.83-37.84 12.38-37.84 13.57-37.06L13.57-37.06Q14.72-37.84 16.14-37.84L16.14-37.84Q18.21-37.84 19.09-36.45L19.09-36.45Q19.38-36.01 19.38-35.52 19.38-35.03 19.09-34.72L19.09-34.72Q18.55-35.13 17.75-35.13L17.75-35.13Q15.87-35.13 15.23-33.3L15.23-33.3 15.23-20.41 26.78-20.41 26.78-33.3Q26.15-35.13 24.27-35.13L24.27-35.13Q23.46-35.13 22.92-34.72L22.92-34.72Q22.63-35.03 22.63-35.52 22.63-36.01 22.91-36.45 23.19-36.89 23.63-37.21L23.63-37.21Q24.56-37.84 25.88-37.84L25.88-37.84Q27.29-37.84 28.44-37.06L28.44-37.06Q29.69-37.84 31.21-37.84 32.74-37.84 33.84-37.06L33.84-37.06Q35.03-37.84 36.11-37.84 37.18-37.84 37.87-37.66 38.55-37.48 39.06-37.16L39.06-37.16Q40.11-36.52 40.11-35.57L40.11-35.57Q40.11-35.08 39.84-34.72L39.84-34.72Q39.31-35.13 38.48-35.13L38.48-35.13Q36.3-35.13 35.47-33.25L35.47-33.25 35.47-22.95Q35.47-21.04 37.35-20L37.35-20Q37.89-19.7 38.45-19.46L38.45-19.46Q36.99-18.75 36.47-18.31L36.47-18.31Q35.47-17.38 35.47-16.02L35.47-16.02 35.47-4.08Q36.3-2.22 38.48-2.22L38.48-2.22Q39.31-2.22 39.84-2.64L39.84-2.64Q40.11-2.27 40.11-1.79 40.11-1.32 39.83-0.9 39.55-0.49 39.06-0.2L39.06-0.2Q37.94 0.49 36.49 0.49 35.03 0.49 33.84-0.29L33.84-0.29Q32.74 0.49 31.21 0.49 29.69 0.49 28.44-0.29L28.44-0.29Q27.29 0.49 25.88 0.49L25.88 0.49Q23.8 0.49 22.9-0.9L22.9-0.9Q22.63-1.34 22.63-1.83 22.63-2.32 22.92-2.64L22.92-2.64Q23.46-2.22 24.27-2.22L24.27-2.22Q26.15-2.22 26.78-4.05L26.78-4.05 26.78-16.92 15.23-16.92 15.23-4.05Q15.87-2.22 17.75-2.22L17.75-2.22Q18.55-2.22 19.09-2.64L19.09-2.64Q19.38-2.32 19.38-1.83 19.38-1.34 19.1-0.9 18.82-0.46 18.36-0.15L18.36-0.15Q17.48 0.49 16.14 0.49L16.14 0.49Q14.75 0.49 13.57-0.27ZM28.81-24.69Q28.78-22.07 28.78-16.02 28.78-9.96 28.96-8.89L28.96-8.89Q29.27-6.84 30.22-6.47L30.22-6.47 30.22-9.64Q30.22-16.14 30.32-16.98 30.42-17.82 30.52-18.16L30.52-18.16Q30.74-19.02 32.01-19.46L32.01-19.46Q30.88-19.8 30.52-20.85L30.52-20.85Q30.22-22.02 30.22-30.52L30.22-30.52Q29.27-30.08 29.05-28.76L29.05-28.76Q28.83-27.32 28.81-24.69ZM8.89-9.64L8.89-6.47Q10.06-6.93 10.21-9.67L10.21-9.67Q10.33-12.4 10.33-17.24 10.33-22.07 10.31-23.67 10.3-25.27 10.28-26.25L10.28-26.25Q10.21-29.1 9.75-29.71 9.3-30.32 8.89-30.52L8.89-30.52Q8.89-22.02 8.59-20.85L8.59-20.85Q8.25-19.87 6.93-19.46L6.93-19.46Q8.4-18.95 8.59-18.21L8.59-18.21Q8.89-17.04 8.89-9.64L8.89-9.64Z" opacity="1" transform="matrix(1,0,0,1,0,0)" fill="#000000" class="wordmark-text-0" data-fill-palette-color="primary" id="text-0"></path></svg></g></svg></g></svg></g></svg></g><g></g></svg></g></svg></g></svg></g></svg></g><defs></defs></svg><rect width="320" height="360" fill="none" stroke="none" visibility="hidden"></rect></g></svg></g></svg>